<!DOCTYPE svg PUBLIC "-//W3C//DTD SVG 20010904//EN" "http://www.w3.org/TR/2001/REC-SVG-20010904/DTD/svg10.dtd">
<svg version="1.0" xmlns="http://www.w3.org/2000/svg" width="1000px" height="822px" viewBox="0 0 10000 8220" preserveAspectRatio="xMidYMid meet">
<g id="layer1" fill="#e7ab53" stroke="none">
 <path d="M6269 2783 l-34 -38 38 34 c34 33 42 41 34 41 -2 0 -19 -17 -38 -37z"/>
 <path d="M3460 2698 c41 -45 50 -53 50 -45 0 2 -21 23 -47 47 l-48 45 45 -47z"/>
 <path d="M5965 2504 l-30 -26 33 22 c17 12 32 23 32 26 0 7 -4 5 -35 -22z"/>
 <path d="M5805 2400 c-16 -11 -25 -20 -20 -20 10 0 64 39 55 40 -3 0 -18 -9 -35 -20z"/>
 <path d="M3910 2365 c0 -7 121 -67 126 -63 2 2 -26 18 -61 36 -36 17 -65 30 -65 27z"/>
 <path d="M4778 2133 c34 -2 88 -2 120 0 31 2 3 3 -63 3 -66 0 -92 -1 -57 -3z"/>
 </g>
<g id="layer2" fill="#808080" stroke="none">
 <path d="M5887 2446 c-92 -63 -94 -65 -81 -74 5 -4 104 -117 219 -252 439 -514 552 -647 600 -704 60 -71 102 -92 151 -76 46 15 74 54 74 101 0 32 -9 50 -57 106 -126 151 -329 390 -354 418 -15 17 -122 143 -239 280 -117 138 -218 251 -224 252 -6 1 -46 -22 -89 -51z"/>
 <path d="M5496 2250 c-54 -20 -95 -39 -90 -41 6 -2 95 -247 198 -543 104 -297 193 -548 199 -557 15 -24 51 -39 93 -39 50 0 94 45 94 95 0 26 -311 946 -375 1108 -9 21 1 23 -119 -23z"/>
 </g>
<g id="layer3" fill="#b67218" stroke="none">
 <path d="M3720 3156 c0 -125 -112 -299 -247 -384 -24 -15 -42 -30 -40 -33 6 -16 88 -99 98 -99 48 0 224 181 274 283 34 69 64 182 65 240 l0 27 -75 0 -75 0 0 -34z"/>
 <path d="M4147 3103 c-13 -182 -91 -345 -231 -484 -36 -37 -91 -84 -121 -104 -30 -21 -52 -41 -49 -46 2 -4 32 -24 65 -44 l60 -37 38 26 c54 38 162 144 209 207 103 138 160 294 169 467 l6 102 -70 0 -70 0 -6 -87z"/>
 <path d="M4620 3183 c0 -110 -13 -255 -29 -318 -46 -185 -160 -382 -310 -537 l-86 -88 45 -14 c124 -40 113 -42 179 30 33 36 88 106 123 155 l63 90 53 -6 c149 -18 345 -103 527 -227 l111 -75 83 20 84 21 -29 24 c-142 118 -322 232 -466 294 -89 38 -223 78 -264 78 -13 0 -25 3 -27 8 -3 4 10 52 29 107 18 55 33 110 33 122 1 12 5 24 11 28 12 7 149 -27 265 -67 289 -100 510 -261 596 -436 19 -37 35 -69 37 -71 6 -11 122 54 122 69 0 36 -96 177 -174 255 -166 169 -421 298 -746 380 l-85 21 -3 72 -3 72 -69 0 c-39 0 -70 -3 -70 -7z"/>
 <path d="M5439 3149 c138 -75 255 -162 366 -274 118 -118 169 -195 181 -276 4 -24 10 -49 13 -56 10 -19 120 77 120 104 1 31 -40 121 -87 190 -70 103 -273 291 -369 341 -13 8 -74 12 -160 12 l-138 0 74 -41z"/>
 </g>
<g id="layer4" fill="#eda834" stroke="none">
 <path d="M3136 3138 c34 -68 126 -204 195 -290 30 -37 61 -78 70 -90 l16 -23 54 36 c70 47 129 104 173 171 40 58 76 161 76 214 l0 34 -305 0 -305 0 26 -52z"/>
 <path d="M3870 3163 c-1 -59 -31 -171 -67 -243 -28 -57 -58 -96 -127 -165 -50 -50 -107 -99 -126 -108 -19 -9 -30 -17 -24 -17 5 0 52 -34 104 -75 52 -41 99 -75 106 -75 19 0 126 83 189 146 132 135 209 300 222 477 l6 87 -142 0 -141 0 0 -27z"/>
 <path d="M4287 3088 c-9 -173 -66 -329 -169 -467 -46 -61 -156 -170 -205 -204 -18 -12 -33 -24 -33 -27 0 -8 186 -101 245 -122 27 -10 57 -18 66 -18 27 0 173 162 246 272 120 182 171 339 179 546 l4 122 -163 0 -164 0 -6 -102z"/>
 <path d="M4762 3118 l3 -72 85 -21 c447 -112 756 -312 894 -578 l35 -66 105 70 c57 38 107 72 109 77 11 16 -16 120 -46 177 -67 129 -330 356 -528 456 l-58 29 -301 0 -301 0 3 -72z"/>
 <path d="M5665 3178 c103 -59 298 -240 367 -341 46 -68 88 -158 88 -190 l0 -21 16 22 c8 12 21 22 28 22 14 0 76 61 76 76 0 6 12 21 26 35 64 60 274 365 274 399 0 6 -165 10 -447 10 -340 -1 -443 -3 -428 -12z"/>
 <path d="M4746 2888 c-2 -7 -18 -60 -35 -118 -41 -135 -41 -134 -11 -138 60 -7 187 -45 267 -80 145 -62 288 -152 469 -295 22 -17 25 -17 113 19 58 23 91 42 91 51 0 32 -66 137 -128 204 -136 147 -364 267 -652 344 -110 29 -110 29 -114 13z"/>
 <path d="M4542 2411 c-35 -49 -90 -119 -123 -155 l-59 -64 32 -7 c18 -3 58 -11 88 -16 30 -6 66 -13 80 -16 48 -11 369 -16 470 -7 60 5 249 39 255 46 3 3 -45 40 -107 81 -184 124 -372 204 -520 222 l-53 6 -63 -90z"/>
 </g>
<g id="layer5" fill="#f45128" stroke="none">
 <path d="M2815 5688 c-4 -24 -7 -46 -7 -50 1 -4 -3 -30 -8 -57 -5 -28 -12 -74 -15 -103 -3 -29 -11 -82 -16 -118 -6 -36 -12 -83 -14 -105 -2 -22 -7 -56 -11 -75 -3 -19 -8 -51 -10 -70 -2 -19 -8 -69 -14 -110 -6 -41 -13 -95 -16 -120 -2 -25 -7 -56 -10 -70 -4 -14 -8 -45 -10 -68 -3 -24 -9 -74 -14 -110 -6 -37 -13 -89 -16 -117 -2 -27 -7 -56 -9 -63 -3 -7 -7 -39 -11 -70 -3 -31 -9 -74 -14 -94 -4 -22 -4 -38 1 -38 5 0 993 0 2197 -1 1995 0 2187 2 2190 16 2 9 -4 67 -12 128 -9 62 -18 130 -21 152 -2 22 -18 137 -35 255 -16 118 -32 233 -35 255 -2 22 -9 70 -14 106 -6 36 -13 86 -15 110 -3 24 -10 74 -15 110 -6 36 -13 86 -15 110 -5 45 -24 177 -32 217 l-4 22 -1994 0 -1993 0 -8 -42z"/>
 </g>
<g id="layer6" fill="#e0e0e0" stroke="none">
 <path d="M3066 6824 c-3 -16 -13 -96 -21 -179 -19 -184 -30 -287 -50 -475 -9 -80 -20 -188 -25 -240 -6 -52 -13 -116 -16 -142 l-7 -48 -63 0 c-34 0 -65 -3 -67 -7 -3 -5 896 -6 1996 -4 1101 3 1972 7 1936 8 l-66 4 -5 37 c-3 20 -29 268 -59 550 l-53 512 -1171 0 c-643 0 -1429 3 -1746 7 l-577 6 -6 -29z"/>
 <path d="M2784 4241 c7 -11 -71 -787 -82 -821 -5 -14 -181 -265 -390 -558 -352 -491 -382 -536 -382 -574 0 -32 7 -47 34 -74 40 -40 83 -45 131 -15 19 11 162 204 375 504 l345 486 141 0 142 1 12 -30 c7 -17 17 -33 22 -36 5 -4 3 8 -6 24 -9 17 -16 34 -16 37 0 3 836 4 1857 3 l1857 -3 342 -478 c188 -264 351 -488 362 -500 15 -15 34 -20 68 -20 40 0 51 4 76 31 21 24 28 43 28 71 0 36 -36 90 -386 580 l-386 541 -44 412 c-24 226 -41 415 -38 419 3 5 -901 9 -2031 9 -1192 0 -2034 -4 -2031 -9z"/>
 <path d="M6264 2768 l-29 -33 33 29 c17 17 32 31 32 33 0 8 -8 1 -36 -29z"/>
 <path d="M3450 2695 c19 -19 36 -35 39 -35 3 0 -10 16 -29 35 -19 19 -36 35 -39 35 -3 0 10 -16 29 -35z"/>
 <path d="M6120 2625 c-24 -25 -42 -45 -39 -45 3 0 25 20 49 45 24 25 42 45 39 45 -3 0 -25 -20 -49 -45z"/>
 <path d="M6050 2417 c0 -2 15 -16 33 -33 l32 -29 -29 33 c-28 30 -36 37 -36 29z"/>
 <path d="M5748 2364 c-38 -20 -36 -28 2 -9 17 9 30 18 30 20 0 7 -1 6 -32 -11z"/>
 <path d="M5810 2363 c1 -5 26 -35 58 -68 57 -61 48 -47 -21 33 -20 23 -37 39 -37 35z"/>
 <path d="M6110 2347 c0 -2 15 -16 33 -33 l32 -29 -29 33 c-28 30 -36 37 -36 29z"/>
 <path d="M6170 2277 c0 -2 15 -16 33 -33 l32 -29 -29 33 c-28 30 -36 37 -36 29z"/>
 <path d="M5411 2200 c0 -8 6 -28 14 -45 17 -39 18 -21 0 25 -7 19 -14 28 -14 20z"/>
 <path d="M6014 2122 c44 -51 84 -96 90 -100 6 -3 -25 35 -68 86 -44 51 -84 96 -90 100 -6 3 25 -35 68 -86z"/>
 <path d="M5666 2130 c4 -14 13 -38 20 -55 11 -24 13 -25 8 -5 -4 14 -13 39 -20 55 -11 24 -13 25 -8 5z"/>
 <path d="M4648 2133 c12 -2 30 -2 40 0 9 3 -1 5 -23 4 -22 0 -30 -2 -17 -4z"/>
 <path d="M4968 2133 c12 -2 32 -2 45 0 12 2 2 4 -23 4 -25 0 -35 -2 -22 -4z"/>
 <path d="M6340 2080 c29 -33 54 -60 57 -60 3 0 -18 27 -47 60 -29 33 -54 60 -57 60 -3 0 18 -27 47 -60z"/>
 <path d="M5476 2010 c4 -14 13 -38 20 -55 11 -24 13 -25 8 -5 -4 14 -13 39 -20 55 -11 24 -13 25 -8 5z"/>
 <path d="M6110 2007 c0 -2 15 -16 33 -33 l32 -29 -29 33 c-28 30 -36 37 -36 29z"/>
 <path d="M6426 1979 c16 -20 31 -34 33 -32 3 2 -10 18 -29 36 l-34 32 30 -36z"/>
 <path d="M6170 1937 c0 -2 15 -16 33 -33 l32 -29 -29 33 c-28 30 -36 37 -36 29z"/>
 <path d="M5746 1900 c3 -14 11 -32 16 -40 6 -10 7 -7 2 10 -3 14 -11 32 -16 40 -6 10 -7 7 -2 -10z"/>
 <path d="M6230 1867 c0 -2 15 -16 33 -33 l32 -29 -29 33 c-28 30 -36 37 -36 29z"/>
 <path d="M5542 1818 c3 -7 13 -37 23 -66 9 -29 19 -52 21 -49 5 5 -36 127 -43 127 -3 0 -3 -6 -1 -12z"/>
 <path d="M6630 1740 c29 -33 54 -60 57 -60 3 0 -18 27 -47 60 -29 33 -54 60 -57 60 -3 0 18 -27 47 -60z"/>
 <path d="M6424 1642 c44 -51 84 -96 90 -100 6 -3 -25 35 -68 86 -44 51 -84 96 -90 100 -6 3 25 -35 68 -86z"/>
 <path d="M5816 1700 c4 -14 13 -38 20 -55 11 -24 13 -25 8 -5 -4 14 -13 39 -20 55 -11 24 -13 25 -8 5z"/>
 <path d="M6761 1588 c40 -49 74 -88 77 -88 6 0 -51 68 -103 125 -26 28 -14 11 26 -37z"/>
 <path d="M5626 1580 c4 -14 13 -38 20 -55 11 -24 13 -25 8 -5 -4 14 -13 39 -20 55 -11 24 -13 25 -8 5z"/>
 <path d="M6520 1527 c0 -2 15 -16 33 -33 l32 -29 -29 33 c-28 30 -36 37 -36 29z"/>
 <path d="M5886 1500 c4 -14 13 -38 20 -55 11 -24 13 -25 8 -5 -4 14 -13 39 -20 55 -11 24 -13 25 -8 5z"/>
 <path d="M6852 1440 c0 -19 2 -27 5 -17 2 9 2 25 0 35 -3 9 -5 1 -5 -18z"/>
 <path d="M5696 1380 c4 -14 13 -38 20 -55 11 -24 13 -25 8 -5 -4 14 -13 39 -20 55 -11 24 -13 25 -8 5z"/>
 <path d="M6832 1379 c-7 -11 -27 -27 -45 -34 -18 -8 -25 -14 -15 -15 19 0 86 55 78 64 -3 3 -11 -4 -18 -15z"/>
 <path d="M6672 1358 c16 -16 36 -28 46 -27 12 0 9 3 -8 10 -14 6 -34 18 -45 27 -12 9 -8 5 7 -10z"/>
 <path d="M5966 1270 c3 -14 11 -32 16 -40 6 -10 7 -7 2 10 -3 14 -11 32 -16 40 -6 10 -7 7 -2 -10z"/>
 <path d="M5990 1171 c0 -23 -8 -50 -21 -67 l-21 -29 26 28 c19 20 26 39 26 68 0 21 -2 39 -5 39 -3 0 -5 -17 -5 -39z"/>
 <path d="M5766 1180 c3 -14 11 -32 16 -40 6 -10 7 -7 2 10 -3 14 -11 32 -16 40 -6 10 -7 7 -2 -10z"/>
 <path d="M5834 1076 c20 -16 91 -22 100 -8 2 4 -13 6 -34 4 -21 -2 -48 1 -61 8 -23 11 -23 10 -5 -4z"/>
 </g>

</svg>